<svg id="Layer_1" enable-background="new 0 0 512 512" height="512" viewBox="0 0 512 512" width="512" xmlns="http://www.w3.org/2000/svg"><path d="m512 16v330l-30 30h-452l-30-30v-330z" fill="#465a61"/><path d="m512 16v330l-30 30h-226v-360z" fill="#3b4a51"/><path d="m376 466-30 15h-180l-30-15h9.3c21.899 0 40.499-15.901 44.399-37.5l6.601-39.901h119.4l6.601 39.901c3.9 21.599 22.5 37.5 44.399 37.5z" fill="#d7f0f5"/><path d="m366.7 466h9.3l-30 15h-90v-92.401h59.7l6.601 39.901c3.9 21.599 22.5 37.5 44.399 37.5z" fill="#c3e1eb"/><path d="m0 346h512v60h-512z" fill="#f0f9fb"/><path d="m256 346h256v60h-256z" fill="#d7f0f5"/><path d="m91 466h330v30h-330z" fill="#f0f9fb"/><path d="m256 466h165v30h-165z" fill="#d7f0f5"/><g fill="#57d9d4"><path d="m60 76h91v30h-91z"/><path d="m60 136h61v30h-61z"/><path d="m151 136h60v30h-60z"/><path d="m241 136h150v30h-150z"/><path d="m181 76h30v30h-30z"/><path d="m241 76h30v30h-30z"/><path d="m151 196h90v30h-90z"/></g><path d="m271 196h30v30h-30z" fill="#26bfbf"/><path d="m331 196h30v30h-30z" fill="#26bfbf"/><path d="m391 196h61v30h-61z" fill="#26bfbf"/><path d="m331 256h30v30h-30z" fill="#26bfbf"/><path d="m151 256h150v30h-150z" fill="#57d9d4"/><path d="m391 256h61v30h-61z" fill="#26bfbf"/><path d="m256 76h15v30h-15z" fill="#26bfbf"/><path d="m256 256h45v30h-45z" fill="#26bfbf"/><path d="m256 136h135v30h-135z" fill="#26bfbf"/></svg>